<?xml version="1.0" encoding="utf-8"?>
<svg viewBox="0 0 100 100" width="100" height="100" xmlns="http://www.w3.org/2000/svg">
  <path d="M 49.832 51.265 C 61.155 51.265 70.332 42.088 70.332 30.765 C 70.332 19.442 61.155 10.265 49.832 10.265 C 38.511 10.265 29.332 19.442 29.332 30.765 C 29.332 42.088 38.511 51.265 49.832 51.265 Z M 64.182 56.389 L 61.509 56.389 C 57.953 58.024 53.998 58.952 49.832 58.952 C 45.668 58.952 41.729 58.024 38.157 56.389 L 35.482 56.389 C 23.599 56.389 13.958 66.032 13.958 77.915 L 13.958 84.578 C 13.958 88.821 17.402 92.265 21.645 92.265 L 78.021 92.265 C 82.264 92.265 85.708 88.821 85.708 84.578 L 85.708 77.915 C 85.708 66.032 76.067 56.389 64.182 56.389 Z" style="fill: rgb(255, 255, 255);"/>
</svg>